<svg width="57" height="53" viewBox="0 0 57 53" fill="none" xmlns="http://www.w3.org/2000/svg">
<g id="&#240;&#159;&#166;&#134; icon &#34;facebook&#34;">
<g id="Group">
<path id="Vector" d="M33.7997 19.5785V26.5617H40.6897C41.2197 26.5617 41.4847 27.0433 41.4847 27.5249L40.4247 32.1001C40.4247 32.3409 39.8947 32.5817 39.6297 32.5817H33.7997V50.1601H25.8498V32.8225H21.3448C20.8148 32.8225 20.5498 32.5817 20.5498 32.1001V27.5249C20.5498 27.0433 20.8148 26.8025 21.3448 26.8025H25.8498V18.8561C25.8498 14.7625 29.2948 11.632 33.7997 11.632H40.9547C41.4847 11.632 41.7497 11.8729 41.7497 12.3545V18.1337C41.7497 18.6153 41.4847 18.8561 40.9547 18.8561H34.5947C34.0647 18.8561 33.7997 19.0969 33.7997 19.5785Z" stroke="#DDE4E6" stroke-width="4" stroke-miterlimit="10" stroke-linecap="round"/>
<path id="Vector_2" d="M36.4498 50.1601H20.5499C7.29997 50.1601 2 45.3441 2 33.304V18.856C2 6.81601 7.29997 2 20.5499 2H36.4498C49.6997 2 54.9997 6.81601 54.9997 18.856V33.304C54.9997 45.3441 49.6997 50.1601 36.4498 50.1601Z" stroke="#DDE4E6" stroke-width="4" stroke-linecap="round" stroke-linejoin="round"/>
</g>
</g>
</svg>
