<svg width="50" height="52" viewBox="0 0 50 52" fill="none" xmlns="http://www.w3.org/2000/svg">
<g id="&#240;&#159;&#166;&#134; icon &#34;shopping cart&#34;">
<g id="Vector" style="mix-blend-mode:plus-lighter">
<path d="M32.396 28.1157C33.9585 28.1157 35.3335 27.229 36.0418 25.8881L43.5002 11.8518C44.271 10.4244 43.271 8.65099 41.6877 8.65099H10.8543L8.896 4.3255H2.0835V8.65099H6.25016L13.7502 25.0662L10.9377 30.3433C9.41683 33.2414 11.4168 36.7667 14.5835 36.7667H39.5835V32.4412H14.5835L16.8752 28.1157H32.396ZM12.8335 12.9765H38.146L32.396 23.7902H17.771L12.8335 12.9765ZM14.5835 38.9294C12.2918 38.9294 10.4377 40.8759 10.4377 43.2549C10.4377 45.6339 12.2918 47.5804 14.5835 47.5804C16.8752 47.5804 18.7502 45.6339 18.7502 43.2549C18.7502 40.8759 16.8752 38.9294 14.5835 38.9294ZM35.4168 38.9294C33.1252 38.9294 31.271 40.8759 31.271 43.2549C31.271 45.6339 33.1252 47.5804 35.4168 47.5804C37.7085 47.5804 39.5835 45.6339 39.5835 43.2549C39.5835 40.8759 37.7085 38.9294 35.4168 38.9294Z" fill="#B7915E"/>
</g>
</g>
</svg>
