<svg width="59" height="47" viewBox="0 0 59 47" fill="none" xmlns="http://www.w3.org/2000/svg">
<g id="&#240;&#159;&#166;&#134; icon &#34;youtube&#34;">
<g id="Group">
<path id="Vector" d="M42.5004 46.1773H15.516C10.9875 46.1773 7.24102 44.6764 4.62852 42.0941C2.01651 39.5122 0.5 35.8119 0.5 31.3405V15.3368C0.5 10.8654 2.01651 7.16507 4.62852 4.58323C7.24102 2.00089 10.9875 0.5 15.516 0.5H42.5004C47.0289 0.5 50.7754 2.00089 53.3879 4.58323C55.9999 7.16507 57.5164 10.8654 57.5164 15.3368V31.3405C57.5164 35.8119 55.9999 39.5122 53.3879 42.0941C50.7754 44.6764 47.0289 46.1773 42.5004 46.1773ZM15.516 3.50091C11.9268 3.50091 8.92547 4.65113 6.8196 6.73268C4.71316 8.8148 3.54766 11.7844 3.54766 15.3368V31.3405C3.54766 34.8929 4.71316 37.8625 6.8196 39.9446C8.92547 42.0262 11.9268 43.1764 15.516 43.1764H42.5004C46.0896 43.1764 49.0909 42.0262 51.1968 39.9446C53.3032 37.8625 54.4688 34.8929 54.4688 31.3405V15.3368C54.4688 11.7844 53.3032 8.8148 51.1968 6.73268C49.0909 4.65113 46.0896 3.50091 42.5004 3.50091H15.516Z" fill="#DDE4E4" stroke="white"/>
<path id="Vector_2" d="M23.2314 14.9748L23.2314 14.9748L23.2346 14.973C24.6027 14.2037 26.4307 14.3113 28.2374 15.3929L28.2374 15.3929L28.2394 15.3941L34.9036 19.341C34.9038 19.3411 34.904 19.3412 34.9042 19.3413C36.6277 20.3687 37.5467 21.8507 37.5467 23.3658C37.5467 24.8809 36.6277 26.3629 34.9043 27.3902C34.9041 27.3904 34.9039 27.3905 34.9036 27.3906L28.2438 31.3349C28.2431 31.3353 28.2424 31.3357 28.2417 31.3361C27.1929 31.9426 26.1464 32.2546 25.2024 32.2546C24.5008 32.2546 23.8298 32.0877 23.2333 31.7579C21.8633 30.9868 21.0068 29.3926 21.0068 27.3134V19.4182C21.0068 17.3338 21.8399 15.7441 23.2314 14.9748ZM24.7377 17.5297L24.7254 17.5358L24.7134 17.5426C24.5693 17.6239 24.4667 17.7465 24.3955 17.8575C24.3207 17.9741 24.2595 18.1105 24.2109 18.259C24.1134 18.5563 24.0545 18.9373 24.0545 19.3916V27.2867C24.0545 27.7298 24.114 28.1037 24.2109 28.3993C24.3007 28.6734 24.4457 28.9499 24.6708 29.1088L24.7027 29.1313L24.7377 29.1486C24.9943 29.2754 25.3106 29.2655 25.5995 29.2021C25.9069 29.1346 26.2609 28.9902 26.6469 28.7557L33.3094 24.8096L33.3096 24.8094C33.6848 24.5869 33.9644 24.3503 34.1557 24.113C34.3399 23.8844 34.4723 23.6161 34.4723 23.3391C34.4723 23.0574 34.3356 22.7943 34.1528 22.5717C33.9639 22.3416 33.6886 22.1084 33.3219 21.8764L33.3157 21.8724L33.3094 21.8687L26.6463 17.9222C26.1235 17.6067 25.6006 17.4246 25.2024 17.4246C25.0094 17.4246 24.8529 17.4728 24.7377 17.5297Z" fill="#DDE4E4" stroke="white"/>
</g>
</g>
</svg>
