<svg width="51" height="52" viewBox="0 0 51 52" fill="none" xmlns="http://www.w3.org/2000/svg">
<g id="&#240;&#159;&#166;&#134; icon &#34;profile circle&#34;">
<g id="Group">
<g id="Vector" style="mix-blend-mode:plus-lighter">
<path d="M50.7143 25.9529C50.7143 11.6529 39.3289 0 25.3571 0C11.3854 0 0 11.6529 0 25.9529C0 33.4793 3.16964 40.253 8.19036 45.0024C8.19036 45.0283 8.19036 45.0283 8.165 45.0543C8.41857 45.3138 8.72286 45.5214 8.97643 45.755C9.12857 45.8848 9.25536 46.0145 9.4075 46.1183C9.86393 46.5076 10.3711 46.871 10.8529 47.2343C11.0304 47.3641 11.1825 47.4679 11.36 47.5976C11.8418 47.935 12.3489 48.2465 12.8814 48.532C13.0589 48.6358 13.2618 48.7655 13.4393 48.8693C13.9464 49.1548 14.4789 49.4143 15.0368 49.6479C15.2396 49.7517 15.4425 49.8556 15.6454 49.9334C16.2032 50.167 16.7611 50.3746 17.3189 50.5563C17.5218 50.6341 17.7246 50.712 17.9275 50.7639C18.5361 50.9456 19.1446 51.1013 19.7532 51.257C19.9307 51.3089 20.1082 51.3608 20.3111 51.3868C21.0211 51.5425 21.7311 51.6463 22.4664 51.7242C22.5679 51.7242 22.6693 51.7501 22.7707 51.7761C23.6329 51.8539 24.495 51.9058 25.3571 51.9058C26.2193 51.9058 27.0814 51.8539 27.9182 51.7761C28.0196 51.7761 28.1211 51.7501 28.2225 51.7242C28.9579 51.6463 29.6679 51.5425 30.3779 51.3868C30.5554 51.3608 30.7329 51.283 30.9357 51.257C31.5443 51.1013 32.1782 50.9715 32.7614 50.7639C32.9643 50.686 33.1671 50.6082 33.37 50.5563C33.9279 50.3487 34.5111 50.167 35.0436 49.9334C35.2464 49.8556 35.4493 49.7517 35.6521 49.6479C36.1846 49.4143 36.7171 49.1548 37.2496 48.8693C37.4525 48.7655 37.63 48.6358 37.8075 48.532C38.3146 48.2205 38.8218 47.935 39.3289 47.5976C39.5064 47.4938 39.6586 47.3641 39.8361 47.2343C40.3432 46.871 40.825 46.5076 41.2814 46.1183C41.4336 45.9886 41.5604 45.8588 41.7125 45.755C41.9914 45.5214 42.2704 45.2878 42.5239 45.0543C42.5239 45.0283 42.5239 45.0283 42.4986 45.0024C47.5446 40.253 50.7143 33.4793 50.7143 25.9529ZM37.8836 38.8515C31.0118 34.1281 19.7532 34.1281 12.8307 38.8515C11.715 39.6041 10.8021 40.4865 10.0414 41.4468C6.18714 37.4501 3.80357 31.974 3.80357 25.9529C3.80357 13.781 13.4646 3.89294 25.3571 3.89294C37.2496 3.89294 46.9107 13.781 46.9107 25.9529C46.9107 31.974 44.5271 37.4501 40.6729 41.4468C39.9375 40.4865 38.9993 39.6041 37.8836 38.8515Z" fill="#B7915E"/>
</g>
<g id="Vector_2" style="mix-blend-mode:plus-lighter">
<path d="M25.3571 12.7939C20.1081 12.7939 15.8481 17.154 15.8481 22.5263C15.8481 27.7948 19.8799 32.077 25.2303 32.2327H25.4585H25.636H25.6867C30.8089 32.051 34.8406 27.7948 34.866 22.5263C34.866 17.154 30.606 12.7939 25.3571 12.7939Z" fill="#B7915E"/>
</g>
</g>
</g>
</svg>
