<svg width="55" height="51" viewBox="0 0 55 51" fill="none" xmlns="http://www.w3.org/2000/svg">
<g id="&#240;&#159;&#166;&#134; icon &#34;instagram&#34;">
<g id="Group">
<path id="Vector" d="M19.85 48.6773H35.15C47.9 48.6773 53 44.0096 53 32.3402V18.337C53 6.66773 47.9 2 35.15 2H19.85C7.1 2 2 6.66773 2 18.337V32.3402C2 44.0096 7.1 48.6773 19.85 48.6773Z" stroke="#DDE4E6" stroke-width="4" stroke-linecap="round" stroke-linejoin="round"/>
<path id="Vector_2" d="M27.5002 33.5072C32.4293 33.5072 36.4252 29.85 36.4252 25.3386C36.4252 20.8273 32.4293 17.1701 27.5002 17.1701C22.571 17.1701 18.5752 20.8273 18.5752 25.3386C18.5752 29.85 22.571 33.5072 27.5002 33.5072Z" stroke="#DDE4E6" stroke-width="4" stroke-linecap="round" stroke-linejoin="round"/>
<path id="Vector_3" d="M41.8721 13.6693H41.9021" stroke="#DDE4E6" stroke-width="6" stroke-linecap="round" stroke-linejoin="round"/>
</g>
</g>
</svg>
