<svg width="66" height="54" viewBox="0 0 66 54" fill="none" xmlns="http://www.w3.org/2000/svg">
<g id="&#240;&#159;&#166;&#134; icon &#34;message question&#34;">
<g id="Group">
<path id="Vector" d="M48 43.1489H36L22.65 50.5762C20.67 51.6803 18 50.5012 18 48.4937V43.1489C9 43.1489 3 38.1304 3 30.6025V15.5465C3 8.01858 9 3 18 3H48C57 3 63 8.01858 63 15.5465V30.6025C63 38.1304 57 43.1489 48 43.1489Z" stroke="#D5B584" stroke-width="5" stroke-miterlimit="10" stroke-linecap="round" stroke-linejoin="round"/>
<path id="Vector_2" d="M33.0005 25.408V24.881C33.0005 23.1747 34.2605 22.2714 35.5205 21.5437C36.7505 20.8411 37.9802 19.9378 37.9802 18.2816C37.9802 15.9731 35.7605 14.1161 33.0005 14.1161C30.2405 14.1161 28.0205 15.9731 28.0205 18.2816" stroke="#D5B584" stroke-width="5" stroke-linecap="round" stroke-linejoin="round"/>
<path id="Vector_3" d="M32.9863 31.4052H33.015" stroke="#D5B584" stroke-width="5" stroke-linecap="round" stroke-linejoin="round"/>
</g>
</g>
</svg>
